<svg xmlns="http://www.w3.org/2000/svg" xmlns:xlink="http://www.w3.org/1999/xlink" fill="none" version="1.1" width="24" height="24" viewBox="0 0 24 24"><defs><clipPath id="master_svg0_11_9395"><rect x="0" y="0" width="24" height="24" rx="0"/></clipPath></defs><g style="mix-blend-mode:passthrough" clip-path="url(#master_svg0_11_9395)"><g style="mix-blend-mode:passthrough"><path d="M12,3C7.02944,3,3,7.02944,3,12C3,16.970599999999997,7.02944,21,12,21C16.970599999999997,21,21,16.970599999999997,21,12C21,7.02944,16.970599999999997,3,12,3C12,3,12,3,12,3ZM1,12C1,5.92487,5.92487,1,12,1C18.0751,1,23,5.92487,23,12C23,18.0751,18.0751,23,12,23C5.92487,23,1,18.0751,1,12C1,12,1,12,1,12Z" fill-rule="evenodd" fill="#000000" fill-opacity="1"/></g></g></svg>